<svg id="Layer_1" data-name="Layer 1" xmlns="http://www.w3.org/2000/svg" viewBox="0 0 380 300" width="760" height="600"><defs><style>.cls-1{fill:#1c252c;}.cls-1,.cls-2{fill-rule:evenodd;}.cls-2{fill:#feec2e;}</style></defs><title>best buy logo</title><path class="cls-1" d="M63.24,106.25V145H83.53c8,0,15.35-2.8,15.35-11,0-5.56-4-8.1-8.41-9.43,2.68-1.08,5.73-3.34,5.73-8.08,0-6.08-6-10.19-14.14-10.19Zm12.43,9h4.57a3.18,3.18,0,0,1,3.27,2.94,3.23,3.23,0,0,1-3.27,2.84H75.67v-5.78Zm0,13.82h6a3.74,3.74,0,0,1,3.87,3.42c0,1.94-1.65,3.55-4.24,3.55H75.67v-7Z"/><path class="cls-1" d="M73.29,149.21v38.73H93.57c8,0,15.36-2.8,15.36-11,0-5.56-4-8.1-8.41-9.43,2.68-1.08,5.73-3.34,5.73-8.09,0-6.07-6-10.18-14.14-10.18Zm12.43,9h4.57a3.19,3.19,0,0,1,3.27,2.93A3.23,3.23,0,0,1,90.29,164H85.72v-5.78Zm0,13.82h6a3.74,3.74,0,0,1,3.87,3.42c0,1.94-1.65,3.55-4.24,3.55H85.72v-7Z"/><polygon class="cls-1" points="99.86 144.98 99.86 106.25 131.1 106.25 131.1 115.6 112.25 115.6 112.25 120.68 127.56 120.68 127.56 129.45 112.25 129.45 112.25 135.66 131.1 135.66 131.1 144.98 99.86 144.98 99.86 144.98"/><path class="cls-1" d="M148,146.09c8.79,0,15.83-5,15.83-13.15,0-13.12-17.07-11.1-17.07-15.18,0-1.58,1.66-2.42,3.36-2.42a8.23,8.23,0,0,1,5,1.93l7.34-7a19.71,19.71,0,0,0-13.82-5.14c-9.38,0-15.52,5.57-15.52,12.29C133.2,130.71,150,128.78,150,133c0,1.46-1.41,2.93-4,2.93-2.89,0-5.19-1.74-7-3.23l-7.39,7c3,2.9,7.75,6.4,16.33,6.4Z"/><polygon class="cls-1" points="173.42 144.98 173.42 115.56 163.19 115.56 163.19 106.25 196.07 106.25 196.07 115.56 185.84 115.56 185.84 144.98 173.42 144.98 173.42 144.98"/><path class="cls-1" d="M109.36,149.18h12.39v23.2a4.9,4.9,0,0,0,4.79,4.53,4.74,4.74,0,0,0,4.64-4.65V149.18h12.35V172.1c0,9.1-7.56,16.35-17.32,16.35a16.74,16.74,0,0,1-16.85-16.84V149.18Z"/><polygon class="cls-1" points="158.8 187.91 158.8 174.07 144.24 149.18 156.77 149.18 165.01 162.52 173.28 149.18 185.84 149.18 171.22 174.22 171.22 187.91 158.8 187.91 158.8 187.91"/><polygon class="cls-2" points="185.84 170.38 178.53 177.69 178.53 187.55 185.84 194.86 216.75 194.86 216.75 170.38 185.84 170.38 185.84 170.38"/><path class="cls-1" d="M184.64,182.62A1.65,1.65,0,1,1,183,181a1.65,1.65,0,0,1,1.64,1.65Z"/></svg>