<svg xmlns="http://www.w3.org/2000/svg" id="Mode_Isolation" width="77" height="50.400002">
  <style id="style3">
    .st0{fill:#ff8383}
  </style>
  <g id="g5" transform="translate(-361.6 -377.1)">
    <path class="st0" d="M438.6 404.8v-1.9c0-1.3-.5-2.6-1.5-3.5L422.5 385c-.9-.9-2.2-1.4-3.5-1.4h-7.4v-2.8c0-2.1-1.7-3.7-3.7-3.7h-42.6c-2.1 0-3.7 1.7-3.7 3.7V413c0 2.1 1.7 3.7 3.7 3.7h69.5c2.1 0 3.7-1.7 3.7-3.7l.1-8.2zm-7.8-3.7h-14.2c-.3 0-.6-.3-.6-.6v-10.9c0-.3.3-.6.6-.6h2.7c.1 0 .3.1.4.2l11.4 10.9c.4.4.2 1-.3 1z" id="path7" fill="#ff8383"/>
  </g>
  <path class="st0" d="M18.8 39.2c-3.1 0-5.6 2.5-5.6 5.6 0 3.1 2.5 5.6 5.6 5.6 3.1 0 5.6-2.5 5.6-5.6 0-3.1-2.5-5.6-5.6-5.6z" id="path9" fill="#ff8383"/>
  <path class="st0" d="M59.3 39.2c-3.1 0-5.6 2.5-5.6 5.6 0 3.1 2.5 5.6 5.6 5.6 3.1 0 5.6-2.5 5.6-5.6 0-3.1-2.5-5.6-5.6-5.6z" id="path11" fill="#ff8383"/>
</svg>