<svg xmlns="http://www.w3.org/2000/svg" id="Mode_Isolation" width="330.70001" height="178.10001">
  <style id="style3">
    .st0{fill:#ff8383}
  </style>
  <g id="g5" transform="translate(-202 -414.6)">
    <path class="st0" id="polygon7" fill="#ff8383" d="M238 523.8l-8.5 49.5 44.5-23.4 25.6 13.5 5.2-30.3-53-51.7v.1l-49.8 7.2z"/>
    <path class="st0" id="polygon9" fill="#ff8383" d="M274 436.4l-17 34.4 31.7-4.6z"/>
    <path class="st0" id="polygon11" fill="#ff8383" d="M460.7 436.4l-14.7 30 31.8 4.6z"/>
    <path class="st0" id="polygon13" fill="#ff8383" d="M428.5 533.1l5.3 31 26.9-14.2 44.5 23.4-8.5-49.5 36-35.1-49.7-7.2-.5-1z"/>
    <path class="st0" id="polygon15" fill="#ff8383" d="M315.3 554.8l3.2 18.5-5.8-3-3.9 22.4 57.9-30.4 57.8 30.4-3.7-21.8-4.5 2.4 2.4-14.4-5.2-30.6 7.9-7.8-32.6-31.8 49.7-7.2.9-1.9-43.8-6.4-28.9-58.6-28.9 58.6-42.6 6.2 1.1 2.1 49.7 7.2-33.3 32.5 7.2 7.1z"/>
    <path class="st0" id="polygon17" fill="#ff8383" d="M295.2 479.4l-22.1 3.2 39.6 38.6 33.3-32.5-49.7-7.2z"/>
    <path class="st0" id="polygon19" fill="#ff8383" d="M315.3 554.8l-2.6 15.5 5.8 3z"/>
    <path class="st0" id="polygon21" fill="#ff8383" d="M439.4 479.6l-.9 1.9-49.7 7.2 32.6 31.8 38.9-37.9z"/>
    <path class="st0" id="polygon23" fill="#ff8383" d="M420.8 570.9l-2.1-12-2.4 14.4z"/>
  </g>
</svg>