<svg id="Objects" xmlns="http://www.w3.org/2000/svg" viewBox="0 0 113.35148 113.39999"><defs><style>.cls-1{fill:#fff;}.cls-2{fill:#ff8383;}</style></defs><path class="cls-1" d="M50.66607,63.15A37.75258,37.75258,0,1,0,88.419,25.39758,37.75272,37.75272,0,0,0,50.66607,63.15Z" transform="translate(-15.65251 -22.5648)"/><path class="cls-2" d="M47.8337,63.15A40.58515,40.58515,0,1,1,88.419,103.73506,40.631,40.631,0,0,1,47.8337,63.15Zm5.66555,0A34.9196,34.9196,0,1,0,88.419,28.23031,34.95874,34.95874,0,0,0,53.49925,63.15Z" transform="translate(-15.65251 -22.5648)"/><path class="cls-2" d="M61.398,64.89321A1.7434,1.7434,0,0,0,63.14136,63.15a25.45783,25.45783,0,0,1,.53011-5.17426,1.74339,1.74339,0,0,0-3.41373-.71A28.97291,28.97291,0,0,0,59.65465,63.15,1.74365,1.74365,0,0,0,61.398,64.89321Z" transform="translate(-15.65251 -22.5648)"/><path class="cls-2" d="M63.23446,55.08186a1.74437,1.74437,0,0,0,1.62466-1.1103A25.13168,25.13168,0,0,1,88.419,37.87267a1.74326,1.74326,0,0,0,0-3.48652A28.596,28.596,0,0,0,61.611,52.70484a1.74456,1.74456,0,0,0,1.62344,2.377Z" transform="translate(-15.65251 -22.5648)"/><rect class="cls-2" x="12.02459" y="108.56266" width="56.39479" height="5.6663" transform="translate(-82.64075 38.50406) rotate(-45.00029)"/><path class="cls-2" d="M24.15161,135.96479a8.46977,8.46977,0,0,0,6.00866-2.48922L55.92814,107.7081A8.49812,8.49812,0,0,0,43.91,95.69L18.14214,121.4574a8.49831,8.49831,0,0,0,6.00947,14.50739Z" transform="translate(-15.65251 -22.5648)"/><path class="cls-1" d="M20.93546,125.122a.86916.86916,0,0,0,.61609-.25522l5.32354-5.32354a.87128.87128,0,0,0-1.23215-1.23219l-5.32358,5.32354a.87132.87132,0,0,0,.6161,1.48741Z" transform="translate(-15.65251 -22.5648)"/><path class="cls-1" d="M28.37551,117.66537a.86939.86939,0,0,0,.6224-.26107c6.0276-6.142,12.18974-12.29783,18.31476-18.29861a.87147.87147,0,1,0-1.21955-1.2452c-6.13374,6.00789-12.30372,12.17278-18.33964,18.32264a.87165.87165,0,0,0,.622,1.48224Z" transform="translate(-15.65251 -22.5648)"/></svg>