<?xml version="1.0" encoding="UTF-8"?><svg id="Calque_1" xmlns="http://www.w3.org/2000/svg" viewBox="0 0 14.17 14.17"><defs><style>.cls-1{fill:#fff;}</style></defs><path class="cls-1" d="M8.72,5.48h.31c1.06,0,1.93,.22,1.93,1.55s-.88,1.57-1.96,1.57h-.29v-3.12Zm0,4.06h.7c1.02,0,2.32,.28,2.32,1.6s-1.1,1.66-2.15,1.66h-.87v-3.27Zm-1.14,4.31h2.13c1.61,0,3.17-.74,3.17-2.63,0-1.1-.75-2.19-1.83-2.39v-.02c.61-.3,.97-1.1,.97-1.79,0-2.12-1.62-2.58-3.33-2.58h-1.11V13.85Z"/><path class="cls-1" d="M6.41,4.72c-.13-.13-.37-.29-.74-.28-1.03,.02-2.5,1.47-3.5,2.9C1.34,8.51-.04,10.93-.04,13.84H1.14c0-.78,.11-1.52,.29-2.23H5.54v2.25h1.18s0-8.07,0-8.09c0-.25,.02-.72-.31-1.05ZM1.8,10.47c1.04-2.66,3.02-4.53,3.74-4.81,0,.03,0,4.81,0,4.81H1.8Z"/><path class="cls-1" d="M10.97,3.93c.32-1.65-.66-3.18-1.74-3.61-.83,1.25-.25,4.11,2.34,4.11,1.52,0,2.52-1.35,2.56-1.82-1.53-.35-3.03,.94-3.16,1.32Z"/></svg>