<?xml version="1.0" encoding="UTF-8"?><svg id="Calque_1" xmlns="http://www.w3.org/2000/svg" viewBox="0 0 14.17 14.17"><defs><style>.cls-1{fill:#fff;}</style></defs><g><path class="cls-1" d="M7.78,14.01c-.1,0-.19-.02-.28-.05l-4.86-1.84c-.25-.09-.43-.31-.5-.56-.06-.26,0-.53,.19-.73l3.72-4.03,1.03-2.75c-.25-.1-.36-.42-.25-.71,.09-.25,.33-.41,.6-.41,.08,0,.15,.01,.23,.04l.96,.36,.15-.55c-.43-.14-.79-.49-.99-.94-.22-.49-.24-1.03-.05-1.53,.02-.06,.08-.1,.14-.1,.55,.2,.95,.57,1.17,1.06,.13,.28,.19,.58,.17,.89,.11-.27,.35-.46,.63-.59,.26-.12,.54-.18,.82-.18,.24,0,.48,.04,.71,.13h.02s.07,.08,.07,.08c.02,.04,.02,.08,0,.12-.19,.5-.56,.89-1.04,1.11-.26,.12-.53,.18-.81,.18-.21,0-.41-.03-.61-.1l-.16,.55,.93,.3c.16,.06,.29,.18,.36,.33,.07,.16,.08,.33,.02,.49-.09,.25-.33,.41-.6,.41-.04,0-.08,0-.12-.01l-.99,2.73,.13,5.47c0,.27-.12,.52-.34,.67-.14,.1-.3,.15-.46,.15h0Zm-5.23-2.97c-.11,.12-.16,.29-.12,.45,.04,.16,.15,.29,.31,.35l4.86,1.84c.06,.02,.12,.03,.17,.03,.1,0,.2-.03,.29-.09,.14-.1,.21-.25,.21-.42l-.11-4.56c-.32,.06-.69,.1-1.07,.17-.11,.02-.22,.04-.32,.04l-.34,.98,.4,.53v.1s-.01,.08-.05,.1l-.14,.02-.46-.6s-.61,.17-.61,.17c-.1,0-.16-.05-.17-.11v-.02s.02-.09,.02-.09c.02-.03,.06-.06,.1-.07l.67-.15,.32-.91c-.06,.02-.12,.03-.19,.03-.13,0-.26-.03-.39-.08-.3-.11-.57-.31-.79-.57l-2.58,2.87Zm4.36-2.46s.08-.05,.13-.06c.39-.08,.79-.12,1.17-.12l-.07-.69,1.06-2.83-.07,.03c-.08-.03-.12-.12-.09-.2,.02-.06,.08-.1,.14-.1l.25,.08s.08,.02,.12,.02c.14,0,.26-.09,.31-.22,.03-.08,.03-.17,0-.25-.04-.08-.1-.14-.19-.18l-2.12-.8s-.08-.02-.12-.02c-.14,0-.26,.09-.31,.21-.06,.17,.02,.36,.19,.43l1.37,.52,.07,.07s.02,.08,0,.12c-.02,.06-.08,.1-.14,.1l-.2-.07-1.5,3.96Zm-.59-1.63l-.98,1.07c.33,.33,.76,.54,1.27,.54l1.53-4.09-.79-.25-1.03,2.73Zm2.92-4.24c.11,0,.24,.01,.37,.01,.24,0,.47-.05,.69-.15,.38-.17,.68-.47,.85-.85-.03,0-.07,0-.1,0-.11,0-.24-.01-.37-.01-.24,0-.47,.05-.69,.15-.38,.17-.68,.47-.85,.85,.03,0,.07,0,.1,0ZM7.98,.58c-.1,.38-.07,.78,.09,1.14,.17,.38,.47,.68,.85,.85,.05-.36,.03-.79-.14-1.17-.16-.36-.44-.65-.8-.82Z"/><path class="cls-1" d="M7.89,.28s.02,0,.04,0c.49,.18,.87,.55,1.08,1.02,.13,.28,.18,.58,.17,.87,.19-.23,.43-.42,.7-.54,.26-.12,.53-.17,.8-.17,.23,0,.46,.04,.69,.13,.05,.02,.08,.08,.06,.13-.18,.49-.55,.87-1.02,1.08-.25,.11-.52,.17-.79,.17-.2,0-.4-.03-.6-.09l-.22,.58,.96,.36c.3,.11,.46,.45,.34,.76-.09,.23-.31,.38-.55,.38-.04,0-.07,0-.11-.01l-1.04,2.76,.13,5.48c0,.25-.11,.48-.32,.63-.13,.09-.28,.14-.43,.14-.09,0-.18-.02-.27-.05l-4.86-1.84h0c-.23-.09-.41-.29-.46-.53-.06-.24,0-.5,.18-.68l3.72-4.03,1.04-2.76c-.24-.14-.35-.44-.25-.71,.09-.23,.31-.38,.55-.38,.07,0,.14,.01,.21,.04l.96,.36,.22-.58c-.44-.19-.79-.54-.99-.98-.21-.47-.23-1-.05-1.49,.02-.04,.05-.07,.1-.07m1.01,2.34c.13-.41,.1-.84-.08-1.23-.18-.39-.48-.7-.87-.87-.13,.41-.1,.84,.08,1.23h0c.18,.39,.48,.7,.87,.87m1.07-.8h0c-.39,.18-.7,.48-.87,.87,.17,.05,.34,.08,.52,.08,.24,0,.49-.05,.71-.15,.39-.18,.7-.48,.87-.87-.17-.05-.34-.08-.52-.08-.24,0-.49,.05-.71,.15m-1.35,2.82s-.02,0-.04,0l-.19-.07-1.53,4.04c.06,0,.13-.01,.2-.03,.4-.08,.79-.12,1.16-.12l-.02-.75s0-.03,0-.04l1.05-2.77-.1-.04c-.05-.02-.08-.08-.06-.13,.02-.04,.05-.07,.1-.07,.01,0,.02,0,.04,0l.2,.07s.09,.02,.14,.02c.15,0,.3-.09,.36-.25,.07-.2-.03-.42-.22-.49l-1.06-.4s0,0,0,0c0,0,0,0,0,0l-1.06-.4s-.09-.02-.14-.02c-.15,0-.3,.09-.36,.25h0c-.07,.2,.03,.42,.22,.49l1.35,.51c.05,.02,.08,.08,.06,.13-.02,.04-.05,.07-.1,.07m-2,3.97s.01,0,.02,0l1.56-4.12-.87-.33-1.05,2.77s-.01,.02-.02,.03l-.95,1.02c.34,.41,.78,.62,1.31,.62m-4.1,2.4h0c-.12,.13-.17,.32-.13,.49,.04,.18,.17,.32,.34,.38l4.86,1.84c.06,.02,.13,.04,.19,.04,.11,0,.22-.03,.31-.1,.15-.11,.23-.28,.23-.46l-.11-4.55c-.36,0-.74,.05-1.13,.12-.11,.02-.21,.03-.32,.04l-.38,1.01,.4,.56s.02,.11-.02,.14c-.02,.01-.04,.02-.06,.02-.01,0-.02,0-.04,0-.02,0-.03-.02-.05-.04l-.39-.54-.65,.15s-.02,0-.02,0c-.05,0-.09-.03-.1-.08-.01-.05,.02-.11,.08-.12l.67-.15,.35-.94c-.23,0-.43-.05-.61-.12-.34-.13-.59-.34-.77-.56l-2.65,2.87M7.89,.18c-.08,0-.16,.05-.19,.13-.19,.51-.18,1.07,.05,1.56,.19,.43,.53,.78,.96,.99l-.15,.4-.87-.33c-.08-.03-.16-.04-.24-.04-.28,0-.54,.18-.64,.44-.11,.29-.01,.6,.22,.79l-1.01,2.67-3.71,4.01c-.19,.21-.27,.5-.2,.77,.06,.28,.26,.5,.53,.6l4.86,1.84c.1,.04,.2,.05,.3,.05,.18,0,.35-.05,.49-.16,.23-.16,.37-.43,.36-.71l-.13-5.47,1.01-2.67s.03,0,.04,0c.28,0,.54-.18,.64-.44,.13-.35-.05-.75-.4-.89l-.87-.33,.15-.4c.18,.05,.36,.07,.54,.07,.29,0,.57-.06,.83-.18,.5-.22,.88-.63,1.07-1.14,.02-.05,.02-.11,0-.16-.02-.05-.06-.09-.11-.11-.23-.09-.48-.13-.72-.13-.29,0-.57,.06-.84,.18-.21,.1-.4,.22-.57,.38-.02-.23-.08-.45-.17-.66-.22-.5-.63-.88-1.14-1.07-.02,0-.05-.01-.07-.01h0Zm.95,2.3c-.32-.17-.57-.44-.72-.77-.15-.33-.18-.7-.1-1.05,.32,.17,.57,.44,.72,.77,.15,.33,.18,.7,.1,1.05h0Zm1.17-.56c.21-.1,.44-.15,.67-.15,.13,0,.25,.01,.37,.04-.17,.32-.44,.57-.77,.72-.21,.1-.44,.15-.67,.15-.13,0-.25-.01-.37-.04,.17-.32,.44-.57,.77-.72h0Zm-1.39,2.83c.08,0,.16-.05,.19-.13,.04-.1-.01-.22-.12-.26l-1.35-.51c-.07-.03-.13-.08-.16-.15-.03-.07-.03-.15,0-.22,.04-.11,.15-.18,.27-.18,.03,0,.07,0,.1,.02l1.04,.39h0s.02,0,.02,0h.01s0,0,0,0l1.04,.39c.15,.06,.22,.22,.16,.36-.04,.11-.15,.18-.27,.18-.03,0-.07,0-.1-.02l-.2-.07s-.05-.01-.07-.01c-.08,0-.16,.05-.19,.13-.04,.1,.01,.22,.12,.26h0s-1.01,2.68-1.01,2.68c0,.02-.01,.05-.01,.08l.02,.64c-.35,.01-.72,.05-1.08,.12,0,0-.02,0-.02,0l1.43-3.79,.1,.04s.05,.01,.07,.01h0Zm-3.17,3.25l.88-.96s.03-.04,.04-.07l1.01-2.68,.68,.26-1.5,3.96c-.44-.01-.82-.19-1.12-.52h0Zm-2.85,3.09l2.58-2.79c.21,.23,.46,.4,.74,.5,.16,.06,.33,.1,.51,.12l-.29,.76-.61,.14c-.05,.01-.1,.04-.13,.09-.03,.05-.04,.1-.03,.15,.02,.09,.1,.16,.2,.16h.04s.59-.14,.59-.14l.35,.49s.06,.06,.09,.07c.02,0,.05,.01,.07,.01,.04,0,.08-.01,.12-.04,.04-.03,.07-.08,.08-.13,0-.05,0-.11-.04-.15l-.37-.51,.34-.9c.09,0,.18-.02,.26-.04,.34-.07,.68-.11,1.01-.12l.1,4.45c0,.15-.07,.29-.19,.37-.08,.05-.16,.08-.26,.08-.05,0-.11,0-.16-.03l-4.86-1.84c-.14-.05-.24-.17-.28-.31-.03-.14,0-.3,.11-.4h0Z"/></g><g><path class="cls-1" d="M7.37,7.69c-.07,0-.14-.01-.2-.04-.14-.05-.25-.16-.32-.3s-.07-.29-.01-.43c.08-.22,.3-.37,.53-.37,.07,0,.14,.01,.2,.04,.14,.05,.25,.16,.32,.3s.07,.29,.01,.43c-.08,.22-.3,.37-.53,.37h0Zm0-.83c-.11,0-.21,.07-.24,.17-.05,.13,.02,.29,.15,.34,.02,0,.04,0,.06,0,.16,0,.24-.06,.28-.15,.03-.06,.02-.14,0-.2-.03-.06-.08-.11-.15-.14l-.09-.02Z"/><path class="cls-1" d="M7.37,6.61c.06,0,.12,.01,.18,.03,.27,.1,.4,.4,.3,.66-.08,.21-.27,.33-.48,.33-.06,0-.12-.01-.18-.03-.27-.1-.4-.4-.3-.66,.08-.21,.27-.33,.48-.33m0,.83c.13,0,.24-.08,.29-.2,.06-.16-.02-.34-.18-.4-.04-.01-.07-.02-.11-.02-.13,0-.24,.08-.29,.2-.06,.16,.02,.34,.18,.4,.04,.01,.07,.02,.11,.02m0-.93c-.25,0-.49,.16-.58,.4-.12,.32,.04,.67,.36,.79,.07,.03,.14,.04,.22,.04,.25,0,.49-.16,.58-.4,.06-.15,.05-.32-.01-.47-.07-.15-.19-.26-.34-.32-.07-.03-.14-.04-.22-.04h0Zm0,.83s-.05,0-.07-.01c-.05-.02-.09-.06-.12-.11-.02-.05-.02-.11,0-.16,.03-.08,.11-.14,.2-.14,.03,0,.05,0,.07,.01,.05,.02,.09,.06,.12,.11,.02,.05,.03,.11,0,.16-.03,.08-.11,.14-.2,.14h0Z"/></g><g><path class="cls-1" d="M7.37,7.69c-.07,0-.13-.01-.2-.04-.14-.05-.25-.16-.32-.3s-.07-.29-.01-.43c.08-.22,.3-.37,.53-.37,.07,0,.14,.01,.2,.04,.29,.11,.44,.44,.33,.73-.08,.22-.3,.37-.53,.37h0Zm0-.83c-.11,0-.21,.07-.24,.17-.05,.13,.02,.29,.15,.34,.02,0,.04,0,.06,0,.16,0,.24-.06,.28-.15,.03-.06,.02-.14,0-.2-.03-.06-.08-.11-.15-.14l-.09-.02Z"/><path class="cls-1" d="M7.37,6.61c.06,0,.12,.01,.18,.03,.27,.1,.4,.4,.3,.66-.08,.21-.27,.33-.48,.33-.06,0-.12-.01-.18-.03-.27-.1-.4-.4-.3-.66,.08-.21,.27-.33,.48-.33m0,.83c.13,0,.24-.08,.29-.2,.06-.16-.02-.34-.18-.4-.04-.01-.07-.02-.11-.02-.13,0-.24,.08-.29,.2-.06,.16,.02,.34,.18,.4,.04,.01,.07,.02,.11,.02m0-.93c-.25,0-.49,.16-.58,.4-.12,.32,.04,.67,.36,.79,.07,.03,.14,.04,.22,.04,.25,0,.49-.16,.58-.4,.12-.32-.04-.67-.36-.79-.07-.03-.14-.04-.22-.04h0Zm0,.83s-.05,0-.07-.01c-.11-.04-.16-.16-.12-.27,.03-.08,.11-.14,.2-.14,.03,0,.05,0,.07,.01,.11,.04,.16,.16,.12,.27-.03,.08-.11,.14-.2,.14h0Z"/></g><g><path class="cls-1" d="M7.56,7.19c-.04,.11-.16,.16-.26,.12s-.16-.16-.12-.26,.16-.16,.26-.12,.16,.16,.12,.26"/><path class="cls-1" d="M7.37,7.38s-.06,0-.09-.02c-.13-.05-.2-.2-.15-.33,.02-.06,.07-.11,.13-.14,.06-.03,.13-.03,.19,0,.13,.05,.2,.2,.15,.33h0c-.02,.06-.07,.11-.13,.14-.03,.01-.07,.02-.1,.02Zm0-.41s-.04,0-.06,.01c-.04,.02-.07,.05-.08,.09-.03,.08,0,.17,.09,.2,.04,.01,.08,.01,.12,0,.04-.02,.07-.05,.08-.09h0c.03-.08,0-.17-.09-.2-.02,0-.04-.01-.05-.01Z"/></g><g><path class="cls-1" d="M7.56,7.19c-.04,.11-.16,.16-.26,.12s-.16-.16-.12-.26,.16-.16,.26-.12,.16,.16,.12,.26"/><path class="cls-1" d="M7.37,7.38s-.06,0-.09-.02c-.13-.05-.2-.2-.15-.33,.02-.06,.07-.11,.13-.14,.06-.03,.13-.03,.19,0,.13,.05,.2,.2,.15,.33h0c-.02,.06-.07,.11-.13,.14-.03,.01-.07,.02-.1,.02Zm0-.41s-.04,0-.06,.01c-.04,.02-.07,.05-.08,.09-.03,.08,0,.17,.09,.2,.04,.01,.08,.01,.12,0,.04-.02,.07-.05,.08-.09h0c.03-.08,0-.17-.09-.2-.02,0-.04-.01-.05-.01Z"/></g><g><path class="cls-1" d="M7.56,7.19c-.04,.11-.16,.16-.26,.12s-.16-.16-.12-.26,.16-.16,.26-.12,.16,.16,.12,.26"/><path class="cls-1" d="M7.37,7.38s-.06,0-.09-.02c-.13-.05-.2-.2-.15-.33,.02-.06,.07-.11,.13-.14,.06-.03,.13-.03,.19,0,.13,.05,.2,.2,.15,.33h0c-.02,.06-.07,.11-.13,.14-.03,.01-.07,.02-.1,.02Zm0-.41s-.04,0-.06,.01c-.04,.02-.07,.05-.08,.09-.03,.08,0,.17,.09,.2,.04,.01,.08,.01,.12,0,.04-.02,.07-.05,.08-.09h0c.03-.08,0-.17-.09-.2-.02,0-.04-.01-.05-.01Z"/></g><path class="cls-1" d="M9.94,9.37s-.03,0-.04,0c-.05-.02-.08-.08-.06-.13,.22-.54,.07-1.23-.09-1.76-.02-.05,.02-.11,.07-.12,.05-.01,.11,.02,.12,.07,.16,.57,.32,1.3,.08,1.89-.02,.04-.05,.06-.09,.06Z"/><path class="cls-1" d="M10.43,9.09s-.02,0-.04,0c-.05-.02-.08-.08-.06-.13,.14-.34,.04-.78-.06-1.13-.02-.05,.01-.11,.07-.12,.05-.01,.11,.02,.12,.07,.11,.38,.21,.86,.05,1.26-.02,.04-.05,.06-.09,.06Z"/><path class="cls-1" d="M4.28,6.79s-.03,0-.05-.01c-.05-.03-.07-.09-.04-.14,.29-.52,.69-1.15,1.27-1.4,.05-.02,.11,0,.13,.05,.02,.05,0,.11-.05,.13-.53,.23-.91,.83-1.18,1.32-.02,.03-.05,.05-.09,.05Z"/><path class="cls-1" d="M4.16,6.16s-.03,0-.05-.01c-.05-.03-.07-.09-.04-.14,.19-.34,.45-.76,.85-.93,.05-.02,.11,0,.13,.05,.02,.05,0,.11-.05,.13-.34,.15-.58,.53-.75,.84-.02,.03-.05,.05-.09,.05Z"/></svg>