<?xml version="1.0" encoding="UTF-8"?><svg id="Calque_1" xmlns="http://www.w3.org/2000/svg" viewBox="0 0 14.17 14.17"><defs><style>.cls-1{fill:#fff;}</style></defs><g id="Tracé_156"><path class="cls-1" d="M2.11,6.55c-.06,.02-.11,.05-.15,.07-.06,.03-.12,.05-.18,.06-.07,.02-.13,.04-.2,.05-.08,.01-.16,.02-.24,.02-.15,0-.3-.02-.45-.07-.13-.04-.25-.11-.35-.21-.1-.1-.18-.22-.23-.35-.06-.16-.09-.33-.08-.5,0-.16,.02-.33,.08-.48,.1-.27,.31-.48,.58-.58,.15-.05,.3-.08,.46-.07,.12,0,.25,.01,.37,.04,.14,.04,.28,.09,.41,.15v.34h-.02c-.11-.09-.24-.17-.37-.22-.13-.05-.26-.07-.4-.07-.11,0-.21,.02-.31,.05-.09,.04-.18,.09-.25,.17-.07,.08-.13,.17-.16,.28-.04,.13-.06,.26-.06,.39,0,.14,.02,.27,.06,.4,.04,.1,.09,.19,.17,.27,.07,.07,.16,.13,.25,.16,.1,.03,.2,.05,.3,.05,.14,0,.28-.02,.41-.07,.13-.05,.25-.12,.36-.22h.02v.34Z"/></g><g id="Tracé_157"><path class="cls-1" d="M4.45,5.13c-.04-.14-.11-.26-.21-.36-.09-.1-.21-.17-.33-.22-.14-.05-.29-.08-.44-.08s-.29,.03-.43,.08c-.13,.05-.24,.12-.34,.22-.09,.1-.17,.23-.21,.36-.05,.16-.08,.32-.07,.48-.01,.17,.02,.33,.07,.48,.04,.14,.12,.26,.21,.36,.09,.1,.21,.17,.33,.22,.29,.1,.6,.1,.88,0,.12-.04,.24-.12,.33-.22,.1-.1,.17-.22,.21-.36,.05-.15,.08-.31,.08-.48,0-.16-.03-.33-.08-.48Zm-.24,.48c.02,.24-.05,.47-.2,.66-.13,.15-.33,.24-.54,.23-.2,.01-.4-.08-.54-.23-.14-.19-.22-.42-.2-.66-.02-.23,.06-.47,.2-.66,.13-.15,.33-.24,.54-.23,.21-.01,.41,.08,.54,.23,.13,.17,.2,.38,.2,.58v.08Z"/></g><g id="Tracé_158"><path class="cls-1" d="M6.65,6.08c0,.09-.02,.17-.06,.25-.04,.08-.1,.16-.17,.21-.09,.06-.18,.11-.28,.15-.13,.04-.26,.06-.39,.05-.15,0-.3-.01-.44-.04-.14-.03-.27-.08-.4-.13v-.36h.02c.12,.09,.25,.17,.4,.21,.14,.05,.28,.07,.42,.07,.15,0,.3-.03,.44-.1,.1-.06,.16-.16,.16-.27,0-.08-.02-.16-.07-.21-.07-.05-.14-.09-.23-.11-.08-.02-.16-.04-.25-.05-.09-.01-.18-.03-.28-.05-.17-.02-.32-.1-.45-.21-.1-.1-.15-.24-.15-.39,0-.18,.09-.35,.24-.45,.18-.12,.39-.18,.61-.18,.15,0,.3,.01,.44,.04,.12,.03,.24,.06,.35,.11v.34h-.02c-.1-.08-.22-.14-.34-.18-.14-.05-.29-.07-.43-.07-.14,0-.27,.03-.39,.1-.09,.05-.15,.15-.15,.25,0,.08,.02,.16,.07,.21,.07,.06,.16,.11,.26,.12,.07,.01,.16,.03,.28,.05,.12,.02,.22,.04,.31,.06,.14,.03,.27,.1,.38,.2,.09,.1,.14,.23,.13,.37Z"/></g><g id="Tracé_159"><polygon class="cls-1" points="9.17 6.7 8.86 6.7 8.86 4.82 8.23 6.1 8.05 6.1 7.42 4.82 7.42 6.7 7.14 6.7 7.14 4.52 7.55 4.52 8.16 5.73 8.75 4.52 9.17 4.52 9.17 6.7"/></g><g id="Tracé_160"><path class="cls-1" d="M11.69,5.13c-.05-.14-.12-.26-.21-.36-.1-.1-.21-.17-.34-.22-.14-.05-.28-.08-.43-.08s-.3,.03-.44,.08c-.13,.05-.24,.12-.33,.22-.1,.1-.17,.23-.22,.36-.05,.16-.07,.32-.07,.48,0,.17,.02,.33,.07,.48,.05,.14,.12,.26,.22,.36,.09,.1,.2,.17,.33,.22,.28,.1,.59,.1,.87,0,.13-.04,.24-.12,.34-.22,.09-.1,.16-.22,.21-.36,.05-.15,.07-.31,.07-.48,0-.16-.02-.33-.07-.48Zm-.24,.48c0,.24-.06,.47-.2,.66-.01,0-.01,.01-.02,.01-.3,.29-.77,.29-1.06-.01-.15-.19-.22-.42-.2-.66-.02-.23,.05-.47,.19-.66,.01,0,.02-.01,.02-.02,.3-.28,.78-.28,1.07,.02,.13,.18,.2,.4,.2,.62v.04Z"/></g><g id="Tracé_161"><path class="cls-1" d="M13.89,6.08c0,.09-.02,.17-.06,.25-.04,.08-.1,.16-.17,.21-.09,.06-.18,.11-.28,.15-.13,.04-.26,.06-.39,.05-.15,0-.3-.01-.44-.04-.14-.03-.27-.08-.4-.13v-.36h.02c.12,.09,.25,.17,.4,.21,.14,.05,.28,.07,.42,.07,.15,0,.3-.03,.44-.1,.1-.06,.16-.16,.16-.27,0-.08-.02-.16-.07-.21-.07-.05-.14-.09-.23-.11-.08-.02-.16-.04-.25-.05-.09-.01-.18-.03-.28-.05-.17-.02-.32-.1-.45-.21-.1-.1-.15-.24-.15-.39,0-.18,.09-.35,.24-.45,.18-.12,.39-.18,.61-.18,.15,0,.3,.01,.44,.04,.12,.03,.24,.06,.35,.11v.34h-.02c-.1-.08-.22-.14-.34-.18-.14-.05-.29-.07-.43-.07-.14,0-.27,.03-.39,.1-.09,.05-.15,.15-.15,.25,0,.08,.02,.16,.07,.21,.07,.06,.16,.1,.26,.12,.07,.01,.16,.03,.28,.05,.12,.02,.22,.04,.31,.06,.14,.03,.27,.1,.38,.2,.09,.1,.14,.23,.13,.37h0Z"/></g><g id="Tracé_162"><path class="cls-1" d="M1.96,8.08c-.04-.13-.11-.26-.2-.36-.09-.1-.2-.17-.32-.22-.13-.05-.28-.08-.42-.08s-.29,.03-.42,.08c-.12,.05-.23,.12-.32,.22-.09,.11-.16,.23-.21,.36-.09,.32-.09,.65,0,.97,.04,.13,.11,.25,.2,.35,.09,.1,.2,.18,.32,.22,.13,.06,.28,.08,.42,.08s.29-.02,.42-.07c.12-.05,.23-.13,.32-.23,.09-.1,.16-.22,.2-.35,.05-.16,.08-.32,.08-.49,0-.16-.03-.32-.08-.48Zm-.23,.48c.02,.24-.05,.47-.19,.66-.13,.15-.32,.24-.52,.23-.2,0-.39-.08-.52-.23-.14-.19-.21-.42-.19-.66-.02-.23,.05-.46,.19-.65,.13-.16,.32-.24,.52-.24s.39,.08,.52,.24c.12,.17,.19,.37,.19,.57v.08Z"/></g><g id="Tracé_163"><path class="cls-1" d="M4.3,9.66h-.38l-.73-.87h-.41v.87h-.29v-2.19h.61c.11,0,.22,0,.33,.03,.08,.02,.16,.05,.24,.09,.08,.05,.14,.11,.19,.19,.05,.09,.07,.19,.07,.29,0,.14-.04,.28-.12,.4-.08,.11-.2,.19-.33,.24l.82,.96Zm-.68-1.57c0-.06-.01-.11-.03-.17-.02-.05-.06-.09-.11-.12-.05-.03-.1-.05-.15-.06-.07-.01-.14-.02-.2-.02h-.34v.83h.29c.08,0,.16,0,.24-.02,.12-.03,.23-.11,.27-.23,.02-.07,.03-.13,.03-.2h0Z"/></g><g id="Tracé_164"><path class="cls-1" d="M6.41,9.49c-.13,.06-.26,.11-.39,.14-.29,.08-.59,.08-.88,0-.13-.04-.26-.12-.36-.21-.1-.1-.18-.22-.23-.36-.06-.16-.09-.33-.08-.5-.02-.31,.09-.61,.31-.83,.23-.21,.53-.32,.84-.3,.13,0,.26,.02,.38,.04,.14,.04,.29,.09,.42,.15v.35h-.03s-.07-.05-.13-.09c-.12-.08-.26-.14-.4-.17-.1-.02-.19-.03-.29-.03-.22-.01-.43,.08-.58,.24-.15,.18-.23,.41-.21,.64-.01,.24,.07,.48,.22,.66,.16,.16,.38,.25,.61,.24,.09,0,.19,0,.28-.03,.08-.02,.17-.04,.25-.07v-.54h-.59v-.26h.87v.94Z"/></g><g id="Tracé_165"><path class="cls-1" d="M8.64,9.66h-.31l-.21-.61h-.95l-.21,.61h-.3l.8-2.19h.39l.8,2.19Zm-.61-.86l-.38-1.07-.38,1.07h.77Z"/></g><g id="Tracé_166"><polygon class="cls-1" points="10.64 9.66 10.28 9.66 9.24 7.7 9.24 9.66 8.97 9.66 8.97 7.47 9.42 7.47 10.37 9.25 10.37 7.47 10.64 7.47 10.64 9.66"/></g><g id="Tracé_167"><polygon class="cls-1" points="11.99 9.66 11.13 9.66 11.13 9.43 11.41 9.43 11.41 7.69 11.13 7.69 11.13 7.47 11.99 7.47 11.99 7.69 11.7 7.69 11.7 9.43 11.99 9.43 11.99 9.66"/></g><g id="Tracé_168"><path class="cls-1" d="M14.17,9.5c-.05,.02-.1,.05-.15,.07-.06,.03-.11,.05-.17,.06-.06,.02-.13,.04-.19,.05-.08,.01-.15,.02-.23,.02-.15,0-.29-.02-.43-.07-.13-.04-.24-.11-.34-.21-.1-.1-.17-.22-.22-.35-.06-.16-.08-.33-.08-.5,0-.16,.02-.33,.08-.48,.05-.13,.12-.26,.22-.36,.1-.1,.21-.17,.34-.22,.14-.05,.29-.08,.44-.08,.12,0,.24,.01,.35,.04,.14,.04,.27,.09,.39,.15v.35h-.02c-.11-.09-.23-.17-.36-.22-.12-.05-.25-.07-.38-.07-.1,0-.2,.02-.3,.05-.09,.04-.17,.09-.24,.17-.07,.08-.13,.18-.16,.28-.04,.13-.06,.26-.06,.39,0,.13,.02,.27,.06,.4,.04,.1,.09,.19,.16,.27,.07,.07,.15,.13,.24,.16,.09,.03,.19,.05,.29,.05,.13,0,.27-.02,.39-.07,.13-.05,.24-.12,.34-.22h.02v.34Z"/></g><g><path class="cls-1" d="M4.09,4.24c.72-.89,1.79-1.46,3-1.46s2.27,.57,2.99,1.46h.26c-.76-1.01-1.93-1.67-3.25-1.67s-2.5,.66-3.26,1.67h.26Z"/><path class="cls-1" d="M9.74,9.91c-.7,.67-1.63,1.09-2.66,1.09s-1.96-.42-2.66-1.09h-.3c.76,.8,1.8,1.29,2.96,1.29s2.2-.5,2.95-1.29h-.3Z"/></g></svg>