<?xml version="1.0" encoding="UTF-8"?><svg id="Calque_1" xmlns="http://www.w3.org/2000/svg" viewBox="0 0 14.17 14.17"><defs><style>.cls-1{fill:#fff;}</style></defs><path class="cls-1" d="M14.08,3.05c-.11-.17-.3-.3-.5-.3l-9.95-.46-.35-1.35c-.08-.28-.31-.47-.61-.47H.63C.28,.47,0,.76,0,1.1s.28,.63,.63,.63h1.54l1.73,6.74-.43,1.76c-.05,.19,0,.39,.11,.54,.13,.16,.3,.24,.49,.24h7.72c.35,0,.63-.28,.63-.63s-.28-.63-.63-.63H4.9l.17-.72,6.3-.3c.24-.02,.44-.16,.54-.36l2.2-4.72c.09-.17,.08-.39-.03-.58h0Zm-3.15,4.44l-5.87,.27-1.06-4.19,8.58,.39-1.65,3.53Z"/><path class="cls-1" d="M5.67,12.52c0,.65-.53,1.18-1.18,1.18s-1.18-.53-1.18-1.18,.53-1.18,1.18-1.18,1.18,.53,1.18,1.18"/><path class="cls-1" d="M12.76,12.52c0,.65-.53,1.18-1.18,1.18s-1.18-.53-1.18-1.18,.53-1.18,1.18-1.18,1.18,.53,1.18,1.18"/></svg>