<?xml version="1.0" encoding="UTF-8"?><svg id="Calque_1" xmlns="http://www.w3.org/2000/svg" viewBox="0 0 14.17 14.17"><defs><style>.cls-1{fill:#fff;}</style></defs><path class="cls-1" d="M13.03,5.68s.1,.05,.15,.06c.07,0,.13-.03,.18-.08,.05-.05,.08-.12,.09-.19v-.19c0-.09,.01-.18,.02-.27,.01-.1,.01-.2,0-.3-.01-.08,0-.16,.03-.24l.1-.32c.03-.09,.08-.24,.11-.33,.04-.09,.09-.18,.15-.26,.06-.07,.11-.15,.15-.24,.02-.04,.02-.08,0-.12-.02-.03-.04-.05-.08-.06-.09-.03-.2-.05-.3-.04-.1-.01-.19-.04-.27-.09-.09-.05-.2-.06-.3-.04-.07,.03-.15,.04-.23,.05-.06-.02-.11-.05-.15-.11-.05-.06-.14-.08-.21-.04h-.03c-.06-.02-.11-.07-.15-.15-.07-.13-.18-.22-.32-.26-.09,0-.18,0-.27,.03-.04,.03-.1,.04-.15,.02-.06-.02-.11-.04-.15-.08-.05-.05-.15-.03-.24,0-.08,.03-.17,.01-.23-.05-.06-.09-.14-.16-.22-.22s-.15-.11-.23-.15c-.05-.04-.09-.09-.11-.15,0-.09,0-.17,.03-.25,.03-.04,.04-.09,.03-.15,0,0,0-.03,0-.03-.05-.03-.12,0-.17,.05-.06,.04-.09,.12-.06,.15v.03s0,.03-.01,.03c-.03,.03-.07,.06-.11,.08-.05,.01-.11,0-.16-.02-.07,0-.14-.04-.19-.09-.02-.06-.03-.12-.03-.18s.01-.12,.03-.18v-.04s-.06-.08-.1-.09c-.07-.03-.14-.05-.21-.05-.06,0-.11,0-.17-.01-.06-.03-.12-.08-.15-.14-.04-.07-.1-.11-.18-.12-.05-.02-.1-.06-.12-.11-.03-.06-.08-.16-.11-.22-.03-.06-.08-.1-.15-.11-.05,.02-.1,.04-.15,.08-.01,.03-.09,.01-.15-.03-.06-.05-.11-.12-.12-.2-.01-.08-.03-.15-.06-.22-.05-.08-.23-.06-.39-.02-.13,.04-.25,.07-.38,.09-.06,.02-.11,.05-.15,.09l-.11,.11c-.03,.14-.04,.28-.04,.42-.02,.18,0,.37,.04,.54,.03,.05,.03,.08,.02,.09,0,.02-.02,.02-.03,.02-.08,.01-.15,.07-.17,.15-.02,.07-.06,.13-.12,.17-.05,0-.09,.04-.13,.07-.12,.06-.25,.1-.38,.12-.18,.05-.36,.12-.53,.2-.1,.07-.19,.16-.26,.27-.03,.06-.04,.17,0,.2,.06,.03,.13,.05,.2,.04h.1s-.07,.02-.1,.03c-.11,.03-.21,.07-.3,.12-.11,.05-.22,.06-.34,.03-.1-.03-.21-.06-.33-.07-.1,0-.2-.03-.3-.05-.1-.01-.2,0-.23,.06v.02s-.03-.03-.03-.05c-.01-.07-.04-.14-.07-.21-.03-.04-.04-.09-.02-.14,.04-.04,.04-.1,.02-.15-.04-.04-.1-.06-.15-.06-.06,.01-.11,.02-.16,.05-.05,.01-.11,0-.16-.03-.07-.04-.15-.06-.23-.05-.01,.02-.04,.05-.04,.06,0,.02,0,.04,.01,.05,.03,.03,.06,.05,.09,.07,.02,.02,.02,.07-.01,.11-.02,.05-.03,.12,0,.15,.02,.02,.04,.05,.04,.08,.02,.06,.05,.11,.09,.15s.06,.09,.08,.14v.18c0,.07,.01,.16,.04,.18,.01,.04,.01,.09,0,.13-.01,.08-.01,.17,0,.25,.03,.07,.07,.14,.12,.19,.01,.01,.02,.02,.02,.03h-.29c-.09,.02-.15,0-.15-.01,0-.02-.02-.03,0-.05t-.02-.03s-.05-.03-.08-.03c-.04,0-.09,.01-.13,.03-.03,.02-.08,.05-.11,.06-.04,.02-.09,.02-.13,0-.1-.01-.19,.02-.28,.06-.07,.04-.16,.05-.24,.02-.03-.03-.06-.07-.07-.11-.03-.09-.07-.16-.14-.23-.1-.09-.23-.14-.36-.15h-.02s-.24,.02-.25,.06-.02,.07-.03,.09c0,.03-.05,.05-.09,.03-.03,0-.11-.01-.14,.02-.01,.01-.03,.04-.04,.06l-.02-.02s-.06-.04-.09-.06c-.03-.01-.06-.02-.09-.03-.02,0-.09,.03-.17,.05-.06,.02-.14,.04-.21,.04-.08,.02-.16,.04-.24,.07-.09,.03-.18,.09-.18,.13,0,.03,0,.08-.02,.09-.01,.04-.01,.07-.01,.11,.01,.04,.05,.07,.09,.07,.07,0,.14,0,.21-.01,.06-.02,.15-.03,.15-.03h.04s-.02,0-.02,.01c-.05,.02-.05,.03-.05,.05,0,.03,.03,.06,.09,.07h-.03c-.08,0-.16,.01-.24,.05-.01,.04-.01,.08,0,.12,.02,.03,.08,.05,.14,.03,.03-.01,.07-.01,.1,.02,.02,.02,.03,.05,.03,.07-.05,.03-.12,.04-.18,.02-.09-.01-.18,0-.27,.01-.02,.02-.03,.04-.03,.06s.02,.03,.03,.05c.05,.04,.11,.06,.17,.08,.06,.01,.12,.06,.12,.07,.02,.04,.03,.09,.03,.14,0,.06,.05,.11,.12,.1h.02s.1-.03,.13-.07c0-.01,0-.02,.01-.02,.03,0,.06,0,.09,.02,.05,.01,.12,.06,.17,.07,.07,.05,.15,.09,.24,.1,.08,.01,.16,.04,.23,.08,.06,.05,.13,.07,.21,.05,.02-.01,.05,0,.08,.01,.01,.01,.01,.03,.01,.05-.02,.06,.01,.13,.06,.16,.07,.04,.14,.05,.21,.03,.06,0,.12,.02,.12,.05,0,.06,.09,.09,.17,.09h.01c.07,0,.14,.02,.2,.06t.02,.03s-.02,.03-.05,.05c-.03,.01-.06,.04-.08,.07,0,.03,0,.06,.02,.08,.04,.05,.09,.09,.15,.12,.07,.02,.14,.03,.21,.02,.03,0,.05,0,.06,.01v.03s-.04,.06-.07,.09c-.02,.01-.03,.03-.03,.04-.01,.03,.01,.06,.04,.08,.04,.03,.08,.06,.11,.11,.01,.05,.01,.11-.02,.16-.02,.12,.02,.24,.09,.33,.07,.08,.12,.17,.15,.26,.03,.08,.08,.14,.15,.18,.07,.04,.13,.09,.19,.14,.07,.06,.16,.11,.25,.15,.06,.01,.12,.05,.15,.1v.02s-.04,.1-.03,.13c0,.02,.03,.06,.05,.11,.02,.04,.03,.08,.03,.12v.12s-.05,.1-.09,.14c-.06,.04-.09,.11-.08,.18,.07,.09,.16,.18,.26,.24,.13,.11,.23,.27,.27,.44,.03,.13,.07,.26,.12,.39,.04,.07,.05,.15,.04,.23-.01,0-.01,.02-.01,.03,0-.02-.02-.03-.03-.06-.03-.08-.08-.17-.09-.2-.05-.09-.08-.18-.09-.27-.03-.14-.1-.26-.2-.36-.03-.04-.09-.06-.14-.05-.03,0-.04,.03-.04,.06-.02,.08-.08,.36-.14,.65-.04,.21-.09,.54-.01,.57,.03,0,.04,.03,.06,.05v.03s-.05,.08-.08,.12c-.08,.23-.14,.46-.18,.69-.05,.29-.13,.56-.23,.83-.04,.1-.09,.19-.16,.28-.04,.03-.09,.06-.14,.07-.03,0-.05,.02-.06,.05-.01,0,0,.04,.02,.06,.06,.06,.14,.09,.22,.1,.09,.02,.15,.08,.15,.11,0,.06,.02,.12,.06,.17,.1,.07,.22,.13,.34,.18,.1,.04,.2,.08,.31,.1,.03,.01,.05,.02,.06,.05,.04,.06,.09,.11,.14,.16,.06,.06,.14,.09,.23,.06,.05-.03,.11-.04,.18-.04,.04,.01,.08,.03,.12,.06,.03,.03,.06,.07,.09,.1,.03,.05,.1,.05,.16,.03,.06-.01,.11-.02,.17-.01,.03,0,.05,.01,.08,.03,0,.03,.18,.03,.25,.03,.08,.01,.16-.02,.22-.08,.01-.01,.01-.04,.01-.06-.01-.03-.01-.06,0-.09,.05,.01,.09,.02,.14,.03,.05,.01,.09,.03,.13,.06,.05,.03,.11,.04,.17,.02,.06-.02,.12,0,.16,.03,.05,.03,.09,.05,.14,.08,.04,0,.07,.04,.08,.07,.03,.06,.13,.09,.22,.09,.07,0,.13,.02,.19,.05,.01,.03,.04,.06,.06,.09,.02,.04,.06,.06,.1,.08,.04,.02,.08,.02,.12,0,0,0,.03,0,.03,.02,.01,0,.01,.02,0,.03-.01,0-.01,0-.01,.03s.01,.04,.03,.06c.03,.03,.16,0,.22-.02,.08-.03,.16-.03,.25,0,.06,0,.09,.04,.09,.06,.01,.03,.04,.04,.07,.04s.06-.02,0-.08c.02-.01,.05-.01,.07,0,.09,0,.18-.03,.24-.09,.07-.06,.16-.08,.25-.08,.04,.02,.1,.02,.15,.01,0-.01,.01-.01,.01-.03,.02-.04-.04-.1-.06-.12-.05-.08-.08-.17-.09-.27,0-.07-.02-.14-.06-.21-.02-.03-.03-.07-.03-.1,0-.02,0-.04,.02-.05h.01s.03,0,.05,0c.02-.04,.03-.08,.01-.13,0-.11,.05-.22,.14-.3,.06-.08,.14-.14,.24-.18,.06,.02,.12,0,.16-.03,.04-.03,.08-.05,.13-.08,.07-.05,.15-.1,.22-.16,.07-.06,.14-.11,.23-.14,.03,0,.08,.02,.08,.03,.03,.05,.08,.08,.13,.11,.08,.03,.16,.04,.24,.03,.05-.01,.1-.01,.15,0,.02,0,.03,.03,.03,.04,0,.02,.01,.03,.02,.03,.01,.03,.07,.05,.14,.05h.01c.07-.01,.13-.07,.12-.14,0,0,0-.03,.02-.04,.05-.04,.12-.05,.19-.05,.05,0,.11,.01,.15,.03-.03,.03-.09,.08-.12,.11s-.01,.04-.01,.06c0,.03,.03,.04,.07,.04,.06,.02,.13,.02,.19,0,.03,0,.07,.02,.09,.05,.02,.04,.04,.07,.07,.11,.08,.04,.17,.08,.26,.1,.09,.02,.17,.05,.24,.11,.07,.03,.15,.03,.23,.01h.06c.06,.06,.15,.07,.22,.03,.06-.04,.13-.07,.2-.09,.05-.01,.1-.03,.15-.06,.02-.01,.06-.01,.12-.01,.03,0,.06-.02,.08-.03,.03-.04,.04-.08,.04-.13,.02-.08,.06-.16,.12-.22,.1-.08,.19-.18,.26-.29,.09-.1,.2-.2,.32-.27,.09-.06,.19-.15,.19-.21,.01-.05,.03-.09,.05-.14,.03-.03,.08-.12,.12-.18,.05-.06,.05-.15,0-.21-.06-.05-.15-.06-.23-.01-.06,.03-.13,.04-.19,.03-.05-.02-.09-.05-.11-.05-.03-.02-.06-.04-.09-.06-.04-.03-.1-.04-.15-.04-.04-.01-.08-.04-.11-.08-.02-.06-.04-.12-.06-.18-.01-.07-.01-.14,0-.2,.02-.06,.05-.12,.08-.18,.05-.05,.06-.12,.05-.18,0-.05-.09-.12-.18-.15-.09-.03-.15-.08-.15-.09-.02-.06-.04-.11-.08-.15-.03-.05-.03-.11-.02-.16,.02-.04,.08-.06,.14-.04,.07,0,.15-.01,.21-.06,.05-.06,.09-.11,.11-.11,.04-.01,.06-.12,.07-.16,.01-.09-.02-.18-.09-.24-.05-.04-.09-.09-.11-.16,0-.04-.05-.12-.13-.18-.05-.02-.09-.06-.11-.12,0-.03,.06-.09,.14-.15,.07-.05,.1-.14,.06-.22-.04-.07-.09-.13-.14-.19-.04-.08-.06-.17-.07-.27,0-.1-.06-.21-.12-.22-.1-.01-.2,0-.29,.04-.09,.03-.2,.09-.18,.15-.01,.07-.05,.13-.09,.18-.02,.04-.06,.07-.11,.08-.01,0-.02,0-.03-.01-.01-.02-.01-.04-.01-.06v-.02s.06-.1,.04-.18c-.01-.1,0-.19,.03-.29,.04-.1,.1-.2,.18-.28,.07-.08,.12-.18,.16-.27,.03-.09,.09-.17,.16-.23,.1-.1,.2-.21,.29-.32,.06-.09,.15-.22,.13-.27-.02-.05-.06-.08-.12-.08,.02,0,.03-.03,.08-.07,.05-.05,.11-.07,.18-.06Zm-3,4.39c-.11,.79-1.86,1.85-2.03,1.97h0c-.16-.12-1.91-1.18-2.02-1.97-.12-.83,.19-1.35,1.03-1.35,.48,0,.89,.35,.99,.82h.02c.09-.47,.5-.81,.98-.82,.84,0,1.16,.52,1.04,1.35Z"/></svg>