<?xml version="1.0" encoding="UTF-8"?><svg id="Calque_1" xmlns="http://www.w3.org/2000/svg" viewBox="0 0 14.17 14.17"><defs><style>.cls-1{fill:#fff;}</style></defs><path class="cls-1" d="M3.09,10.22l.74-1.11c-1.69-2.01-1.74-5-.08-7.06C4.6,1.01,5.8,.31,7.13,.08c1.57-.27,3.18,.15,4.42,1.15,.49,.39,.9,.87,1.24,1.41l.14,.23-1.07,.66-.14-.23c-.26-.42-.58-.79-.96-1.09-.96-.77-2.2-1.1-3.42-.89-1.03,.18-1.96,.72-2.61,1.53-1.21,1.5-1.26,3.62-.16,5.17l.64-.95,1.67,3.4-3.78-.25Z"/><path class="cls-1" d="M5.9,14.17c-1.18-.03-2.3-.42-3.24-1.14-.5-.38-.92-.84-1.27-1.38l-.14-.25,1.05-.68,.14,.25c.27,.42,.6,.78,.98,1.07,.73,.56,1.59,.86,2.51,.88,1.37,.03,2.68-.6,3.51-1.68,1.17-1.53,1.17-3.65,.03-5.18l-.61,.97-1.76-3.36,3.79,.15-.71,1.13c1.74,1.96,1.86,4.96,.26,7.05-1.07,1.4-2.77,2.21-4.53,2.17h0Z"/></svg>